# ProBuilder 6.0.7
# https://unity3d.com/unity/features/worldbuilding/probuilder
# 11/18/2025 1:06:01 PM

mtllib ./Cone.mtl
o Cone

g Cone
v -2 -1.2 0
v -1.414214 -1.2 1.414214
v 0 3.6 0
v 0 -1.2 0
v 8.742278E-08 -1.2 2
v 1.414214 -1.2 1.414214
v 2 -1.2 -1.748456E-07
v 1.414214 -1.2 -1.414213
v -2.384976E-08 -1.2 -2
v -1.414213 -1.2 -1.414214

vt 0 0
vt 1.530734 0
vt 0.7653669 2.722905
vt -1 0
vt -0.7071068 0.7071068
vt 4.371139E-08 1
vt 0.7071068 0.7071068
vt 1 -8.742278E-08
vt 0.7071068 -0.7071067
vt -1.192488E-08 -1
vt -0.7071066 -0.7071069

vn -1.788854 1.073313 -6.356377E-08
vn -1.264911 1.073313 1.264911
vn 1.065997E-07 2.4 0
vn 0 -2.4 0
vn 6.356377E-08 1.073313 1.788854
vn 1.264911 1.073313 1.264911
vn 1.788854 1.073313 -3.178189E-08
vn 1.264911 1.073313 -1.264911
vn 1.271275E-07 1.073313 -1.788854
vn -1.264911 1.073313 -1.264911

usemtl Green02-Dull
f 1/1/1 2/2/2 3/3/3
f 4/1/4 2/5/4 1/4/4
f 2/1/2 5/2/5 3/3/3
f 4/1/4 5/6/4 2/5/4
f 5/1/5 6/2/6 3/3/3
f 4/1/4 6/7/4 5/6/4
f 6/1/6 7/2/7 3/3/3
f 4/1/4 7/8/4 6/7/4
f 7/1/7 8/2/8 3/3/3
f 4/1/4 8/9/4 7/8/4
f 8/1/8 9/2/9 3/3/3
f 4/1/4 9/10/4 8/9/4
f 9/1/9 10/2/10 3/3/3
f 4/1/4 10/11/4 9/10/4
f 10/1/10 1/2/1 3/3/3
f 4/1/4 1/4/4 10/11/4

